<?xml version="1.0" standalone="no"?>
<!DOCTYPE svg PUBLIC "-//W3C//DTD SVG 20010904//EN"
 "http://www.w3.org/TR/2001/REC-SVG-20010904/DTD/svg10.dtd">
<svg version="1.0" xmlns="http://www.w3.org/2000/svg"
 width="837.000000pt" height="837.000000pt" viewBox="0 0 837.000000 837.000000"
 preserveAspectRatio="xMidYMid meet">

<g transform="translate(0.000000,837.000000) scale(0.100000,-0.100000)"
fill="#000000" stroke="none">
<path d="M0 4185 l0 -4185 652 0 c567 0 654 2 668 15 15 14 21 14 60 0 38 -13
442 -15 3516 -15 l3474 0 0 1501 c0 1462 0 1501 -19 1506 -13 3 -21 17 -25 46
-7 42 4 60 31 50 11 -4 14 5 11 43 -3 45 -5 49 -31 52 -27 3 -28 1 -25 -30 l3
-33 -72 0 c-40 0 -77 -5 -82 -10 -11 -11 61 -80 109 -105 74 -38 69 -60 -14
-60 -41 0 -47 2 -36 15 17 20 4 35 -31 35 -19 0 -29 -5 -29 -15 0 -12 -7 -14
-27 -9 -53 13 -60 23 -15 24 23 0 42 3 42 7 0 5 -22 28 -49 53 -42 38 -51 43
-54 28 -3 -10 -14 -18 -27 -18 -26 0 -110 -56 -110 -73 0 -8 -3 -8 -9 2 -6 9
-18 11 -40 6 -17 -4 -31 -2 -31 3 0 14 127 160 156 179 25 16 27 16 43 -5 14
-19 21 -20 56 -12 22 5 59 10 83 10 23 0 42 5 42 10 0 6 -25 34 -55 62 -56 52
-71 92 -40 104 27 11 146 -18 156 -38 11 -20 9 -21 -38 -18 -46 2 -42 -20 11
-63 46 -38 56 -38 56 0 0 22 3 24 33 18 l32 -6 -30 25 c-24 21 -27 26 -13 31
10 4 22 4 28 0 7 -4 10 247 10 822 -1 712 -3 831 -15 847 -20 26 -19 50 0 42
13 -5 15 14 15 134 l0 140 -36 0 c-36 0 -36 0 -20 -25 18 -27 21 -55 6 -55 -5
0 -10 5 -10 10 0 6 -10 24 -22 40 -20 27 -27 30 -81 30 -56 0 -62 2 -98 39
-22 21 -39 44 -39 50 0 6 18 11 44 11 25 0 48 5 52 11 9 16 -89 106 -191 174
-49 33 -110 81 -136 106 -67 67 -218 128 -351 144 -32 3 -58 11 -58 16 0 5 10
7 23 4 12 -3 58 -12 101 -21 136 -27 274 -86 302 -129 18 -28 179 -152 233
-180 19 -9 56 -37 82 -62 l48 -45 48 16 c26 8 59 16 73 18 l25 3 3 1458 2
1457 -4185 0 -4185 0 0 -4185z m4115 2310 c135 -45 172 -67 226 -130 19 -22
26 -34 17 -26 -19 14 -21 9 -12 -26 7 -26 24 -31 24 -8 0 23 13 19 93 -34 92
-61 159 -137 181 -202 14 -45 14 -55 1 -92 -21 -59 -19 -69 19 -145 18 -37 41
-92 49 -122 9 -31 30 -73 46 -95 19 -25 31 -52 31 -73 0 -36 -30 -101 -66
-145 -32 -39 -30 -53 13 -90 59 -50 91 -86 109 -120 62 -120 78 -158 100 -245
15 -53 26 -107 25 -119 -1 -27 8 -33 72 -47 28 -6 52 -17 55 -25 3 -10 -3 -11
-29 -5 -32 7 -95 12 -181 13 -46 1 -51 21 -6 21 30 0 68 23 68 42 0 5 -12 13
-26 18 -21 9 -25 15 -20 35 7 28 -17 37 -28 10 -3 -8 -13 -15 -22 -15 -12 0
-15 7 -12 30 5 36 -4 46 -22 25 -7 -8 -21 -15 -32 -15 -17 0 -19 5 -13 40 4
26 3 40 -4 40 -6 0 -11 -6 -11 -13 0 -7 -14 -25 -31 -40 -29 -26 -35 -27 -103
-21 -39 4 -79 11 -88 15 -9 5 -31 9 -47 9 -17 0 -39 4 -49 9 -18 9 -88 29
-137 38 -16 3 -43 14 -60 24 -16 11 -40 19 -51 19 -12 0 -27 7 -34 15 -7 8
-22 15 -34 15 -12 0 -32 7 -44 16 -13 9 -34 17 -48 19 -13 1 -33 10 -43 19 -9
9 -27 16 -38 16 -11 0 -32 9 -47 21 -24 19 -29 20 -49 6 -12 -8 -30 -38 -40
-66 -21 -60 -76 -125 -125 -149 -19 -9 -35 -21 -35 -27 1 -5 21 -20 47 -33 25
-13 46 -27 46 -32 0 -6 9 -10 21 -10 11 0 33 -14 49 -32 28 -30 31 -31 67 -20
24 7 39 8 41 2 7 -20 42 -11 42 10 0 12 7 34 15 50 17 33 3 42 -17 11 -14 -23
-38 -16 -38 10 0 10 -7 19 -15 19 -9 0 -20 11 -26 24 -9 19 -7 30 15 64 14 23
26 45 26 50 0 14 41 43 51 36 7 -4 7 -10 1 -16 -15 -15 -3 -37 28 -53 19 -10
30 -25 34 -50 8 -38 17 -43 37 -19 11 14 13 14 21 0 14 -24 26 -19 24 9 -1 19
-6 25 -20 23 -11 -2 -21 2 -23 8 -8 22 37 21 86 -2 45 -20 51 -27 51 -53 0
-18 -7 -34 -17 -40 -31 -17 -5 -25 93 -27 52 -1 101 -7 108 -13 7 -6 15 -8 19
-5 3 3 12 -3 19 -15 7 -12 20 -21 29 -21 20 0 35 -18 41 -45 3 -16 15 -21 63
-28 73 -9 103 -23 120 -57 12 -24 17 -25 77 -22 34 1 95 4 133 6 39 1 110 6
158 11 93 9 93 8 72 58 -4 10 -3 17 5 17 14 0 49 -40 50 -57 0 -6 8 -9 19 -6
10 3 21 -2 24 -10 3 -9 27 -26 54 -40 52 -26 264 -172 463 -318 327 -240 462
-379 642 -662 111 -173 193 -329 203 -382 4 -21 1 -74 -6 -116 -11 -68 -10
-83 4 -121 41 -108 69 -244 72 -358 3 -88 2 -100 -4 -50 -7 58 -12 70 -48 107
-23 24 -47 56 -54 72 -11 25 -15 27 -24 14 -10 -13 -13 -13 -24 1 -31 37 -58
9 -91 -97 -7 -21 -18 -41 -26 -44 -16 -6 -64 35 -64 55 0 6 -4 12 -10 12 -5 0
-10 8 -10 18 0 10 -4 22 -8 27 -5 6 -15 48 -22 95 -25 169 -53 160 -62 -20 -1
-25 -7 -48 -13 -52 -19 -14 -45 -8 -46 10 -1 9 -4 4 -8 -13 -6 -29 -8 -30 -54
-27 -26 2 -54 -1 -62 -8 -14 -12 -42 -1 -74 28 -8 8 -24 11 -37 8 -14 -4 -29
0 -40 11 -12 13 -33 18 -68 18 -36 0 -50 4 -49 13 4 17 -45 15 -63 -3 -9 -8
-26 -15 -40 -15 -13 0 -24 -4 -24 -10 0 -5 -13 -10 -29 -10 -17 0 -31 -6 -35
-15 -3 -8 -17 -20 -31 -25 -14 -5 -24 -15 -23 -21 2 -7 -6 -15 -17 -18 -11 -3
-20 -12 -21 -18 -1 -7 -2 -20 -2 -28 -1 -8 -11 -15 -23 -15 -11 0 -18 -4 -14
-9 3 -5 1 -12 -5 -16 -5 -3 -10 -15 -10 -26 0 -10 -3 -19 -7 -19 -5 0 -30 -28
-58 -62 -77 -95 -95 -109 -134 -106 -50 4 -66 40 -75 163 -6 75 -12 102 -24
111 -11 8 -21 9 -26 3 -6 -5 -18 -9 -28 -9 -10 0 -18 -6 -18 -14 0 -41 -110
-184 -143 -186 -5 0 -19 -13 -32 -29 -46 -54 -125 -99 -185 -106 -118 -12
-146 -17 -160 -26 -10 -6 0 -9 33 -9 l47 0 0 -235 0 -235 -70 0 -70 0 0 133
c0 72 -3 176 -7 230 l-6 97 -34 0 c-18 0 -33 -5 -33 -12 0 -6 -3 -8 -6 -5 -4
3 -15 2 -25 -3 -14 -8 -23 -5 -39 12 -11 12 -20 25 -20 29 0 13 -54 21 -165
24 -98 2 -113 0 -139 -18 -22 -16 -45 -20 -102 -21 -92 -1 -102 8 -106 91 -2
40 -7 63 -15 63 -6 0 -13 10 -15 23 -3 21 -5 20 -33 -12 -17 -19 -44 -50 -61
-69 l-31 -35 -21 21 c-26 26 -45 28 -68 5 -16 -16 -16 -16 -9 7 12 40 44 89
121 184 62 77 73 97 84 150 17 91 89 375 106 421 8 22 21 68 27 101 l13 61
-32 21 -32 21 -79 -117 c-90 -133 -143 -260 -143 -343 0 -27 -4 -49 -10 -49
-14 0 -12 36 6 126 20 98 62 191 142 314 53 80 60 97 47 106 -8 6 -11 14 -7
18 4 4 0 13 -8 20 -18 13 -40 51 -40 67 0 20 -53 80 -67 75 -7 -3 -13 -1 -13
4 0 6 -3 9 -7 8 -5 0 -15 1 -23 4 -8 4 -24 9 -35 14 -11 4 -26 8 -33 10 -8 1
-22 10 -32 19 -16 14 -30 16 -77 10 -32 -4 -75 -16 -95 -26 -23 -12 -58 -19
-91 -19 -48 0 -56 3 -88 38 -19 20 -46 62 -59 92 -13 30 -34 69 -46 85 -44 61
-74 135 -79 191 -3 45 -11 65 -39 102 -20 25 -34 47 -31 50 2 2 21 -5 41 -17
35 -21 37 -21 51 -4 18 23 9 135 -14 174 -17 29 -51 49 -83 49 -22 0 -80 -67
-80 -92 0 -9 14 -25 30 -35 43 -25 40 -47 -6 -38 -52 9 -72 24 -89 68 -8 21
-19 36 -24 32 -18 -11 -43 9 -58 46 -17 44 -52 59 -141 59 -48 0 -58 4 -88 34
-43 43 -44 75 -4 166 17 38 30 71 30 75 0 3 16 39 35 79 l36 72 -33 80 -33 79
2 224 2 224 -36 59 c-63 101 -79 208 -43 286 29 65 177 248 227 281 25 17 68
33 102 39 40 7 92 29 162 69 324 183 593 290 804 319 60 9 135 19 165 24 77
11 153 3 235 -25z m2929 -822 c3 -4 -19 -14 -49 -24 -136 -42 -265 -152 -380
-325 -72 -109 -115 -206 -155 -354 -30 -111 -75 -210 -98 -218 -22 -7 -12 29
19 74 21 31 36 72 49 132 42 201 162 409 329 571 92 88 257 172 285 144z m732
-134 c95 -45 162 -117 208 -224 22 -49 45 -97 52 -105 7 -8 27 -51 44 -95 17
-44 47 -112 66 -152 45 -93 58 -165 50 -283 -3 -52 -8 -140 -11 -195 -7 -128
-14 -183 -25 -190 -5 -3 -8 6 -7 19 1 14 -2 24 -6 23 -14 -3 -36 46 -37 80 0
40 9 63 25 63 7 0 15 16 17 36 3 29 -1 42 -19 60 l-23 23 -42 -19 c-24 -11
-50 -20 -59 -20 -9 0 -23 -10 -31 -21 -12 -18 -17 -20 -35 -11 -16 9 -22 9
-26 -1 -2 -6 -15 6 -29 28 -14 22 -47 64 -73 93 -45 50 -49 52 -66 37 -14 -14
-30 -15 -81 -10 -44 4 -75 2 -103 -8 -22 -8 -57 -12 -77 -9 -27 3 -48 -2 -75
-18 -25 -14 -54 -22 -84 -22 l-47 0 -27 -57 c-15 -31 -32 -67 -38 -81 -18 -41
-59 -80 -84 -80 -37 0 -102 30 -108 51 -4 11 -10 17 -15 14 -17 -10 -40 8 -40
31 0 14 -6 39 -14 57 -18 44 -28 155 -18 192 9 33 -4 32 207 23 73 -3 84 0
128 25 48 28 57 42 35 49 -8 3 -4 9 10 17 49 26 25 34 -87 27 -91 -5 -110 -4
-115 9 -7 19 -29 11 -79 -28 -21 -16 -39 -28 -41 -26 -32 37 -32 78 -1 138 27
53 48 72 140 120 33 18 69 43 80 56 11 12 29 25 40 27 11 2 21 11 23 21 11 57
-177 -35 -261 -128 -18 -20 -18 -19 -12 19 7 41 80 214 120 282 13 22 51 60
84 84 34 25 61 47 61 51 0 17 89 41 200 52 167 17 230 12 306 -24z m-5980
-326 c-8 -20 -19 -16 -38 17 -18 32 -25 35 -46 21 -11 -6 -11 -19 2 -68 25
-97 18 -203 -14 -203 -4 0 -22 11 -38 25 l-30 25 -7 -39 c-7 -44 -34 -75 -62
-69 -25 5 -19 22 9 28 20 5 24 13 28 67 3 34 8 64 11 68 4 3 22 -12 40 -34 18
-23 38 -41 46 -41 18 0 17 93 -2 156 -22 72 -20 92 10 100 14 3 34 4 45 1 17
-4 20 0 20 32 0 20 6 43 13 50 10 10 13 -1 15 -55 2 -37 1 -73 -2 -81z m-836
53 c20 -2 58 -17 85 -34 28 -17 64 -34 80 -38 17 -4 36 -16 43 -26 7 -10 19
-18 27 -18 26 0 55 -58 79 -156 13 -55 20 -100 15 -102 -5 -2 -9 -12 -9 -23 0
-12 5 -16 15 -13 11 5 15 -1 15 -18 0 -14 12 -35 26 -49 26 -24 59 -78 52 -85
-2 -2 -26 19 -53 47 -60 60 -85 72 -141 63 -38 -5 -43 -9 -48 -39 -4 -19 -12
-35 -18 -37 -17 -6 -14 -60 7 -113 17 -46 18 -47 54 -40 54 11 56 11 59 0 1
-5 -13 -12 -33 -15 -20 -3 -36 -9 -37 -14 -1 -12 23 -46 63 -88 34 -35 41 -38
92 -38 31 0 59 5 62 10 16 25 37 4 75 -74 48 -100 52 -147 16 -164 -14 -6 -32
-22 -41 -36 l-17 -25 -39 24 c-47 31 -57 31 -61 3 -5 -35 -25 -32 -44 7 -16
35 -16 37 5 56 23 22 26 50 10 98 -13 37 -18 38 -53 10 -25 -20 -28 -20 -51
-5 -32 21 -60 20 -129 -4 -52 -17 -61 -18 -85 -5 -21 10 -31 11 -40 2 -20 -20
-12 -44 30 -81 35 -30 44 -34 53 -22 33 42 99 2 102 -62 l2 -38 -72 3 c-118 6
-125 5 -207 -27 -43 -16 -83 -30 -89 -30 -17 0 -11 22 18 59 15 20 41 64 59
97 31 61 31 62 7 49 -13 -6 -47 -36 -76 -66 -39 -41 -59 -54 -75 -51 -13 2
-23 7 -23 12 0 5 -17 18 -39 29 -59 30 -67 76 -29 163 16 37 19 53 10 56 -19
6 -14 46 8 70 11 12 20 26 20 32 0 12 47 3 67 -12 6 -5 36 -12 67 -15 45 -5
60 -2 90 17 20 12 36 26 36 32 0 6 6 8 14 5 35 -14 131 128 106 158 -6 8 -6
21 2 41 9 25 8 35 -7 58 -20 30 -33 31 -120 7 -22 -6 -67 -13 -100 -16 -33 -3
-74 -8 -92 -10 -36 -6 -51 8 -32 32 11 13 10 17 -5 29 -22 15 -15 64 9 64 8 0
15 5 15 11 0 6 7 9 15 6 19 -8 30 10 16 27 -9 10 -21 88 -22 131 0 95 36 181
72 172 10 -3 23 1 29 8 11 13 35 13 160 1z m3962 -13 c88 -93 193 -237 234
-322 81 -168 193 -260 423 -352 74 -29 161 -71 194 -92 101 -65 357 -325 357
-363 0 -21 -15 -17 -27 9 -16 35 -231 255 -300 307 -40 31 -110 67 -191 100
-296 122 -386 194 -475 380 -57 120 -225 340 -260 340 -10 0 -15 5 -12 10 11
17 30 11 57 -17z m-862 -223 c0 -5 -7 -7 -15 -4 -8 4 -15 8 -15 10 0 2 7 4 15
4 8 0 15 -4 15 -10z m2907 -232 c-3 -8 -6 -5 -6 6 -1 11 2 17 5 13 3 -3 4 -12
1 -19z m1386 -58 c-7 -26 -23 -26 -23 1 0 13 -4 18 -12 13 -9 -5 -8 -2 1 9 17
22 41 5 34 -23z m-6153 -5 c0 -2 -5 -16 -12 -30 -13 -29 -48 -42 -75 -26 -15
9 -13 10 15 11 25 0 35 6 44 25 10 21 28 35 28 20z m-1452 -11 c28 -8 27 -15
-3 -37 -19 -13 -34 -16 -60 -11 -40 7 -41 23 -4 41 27 14 35 15 67 7z m1327
-32 c-33 -7 -43 -20 -55 -75 -32 -139 -35 -144 -72 -110 -17 15 -18 14 -18
-25 0 -82 -21 -93 -69 -35 l-31 38 0 -40 c-1 -48 -40 -167 -58 -173 -19 -6
-14 21 13 80 20 42 25 69 25 131 0 48 4 77 11 77 6 0 22 -27 36 -60 15 -33 30
-60 35 -60 4 0 8 26 8 58 0 84 27 108 50 46 20 -51 40 -23 59 81 13 71 23 84
59 77 22 -5 23 -7 7 -10z m5742 -124 c29 -32 43 -62 43 -92 0 -38 -13 -39 -72
-7 -65 35 -106 45 -159 36 -33 -6 -39 -10 -34 -26 8 -23 -3 -27 -69 -32 -41
-3 -50 0 -54 15 -6 24 -9 23 -68 -16 -48 -32 -61 -46 -114 -116 -10 -14 -21
-22 -25 -19 -14 15 36 218 54 220 3 0 29 2 56 4 166 13 212 19 229 31 13 9 38
11 81 7 38 -3 70 -1 81 5 26 15 28 15 51 -10z m-7192 -38 c3 -5 -1 -10 -10
-10 -9 0 -13 5 -10 10 3 6 8 10 10 10 2 0 7 -4 10 -10z m7083 -113 c34 -8 58
-20 65 -32 5 -11 16 -24 24 -28 7 -4 13 -15 13 -22 0 -18 -46 -20 -87 -4 -40
15 -239 -7 -273 -31 -14 -10 -40 -21 -58 -25 -26 -5 -32 -3 -32 10 0 21 49 85
65 85 7 0 15 7 19 15 3 8 16 15 28 15 13 0 32 7 42 15 24 18 120 19 194 2z
m-718 -57 c0 -5 -4 -10 -10 -10 -5 0 -10 5 -10 10 0 6 5 10 10 10 6 0 10 -4
10 -10z m16 -28 c7 -4 13 -16 15 -27 4 -17 13 -20 74 -23 60 -3 74 -7 97 -29
16 -15 28 -32 28 -39 0 -22 23 -64 31 -58 5 3 9 17 9 30 0 39 21 25 57 -37 54
-93 87 -133 135 -164 53 -34 59 -45 23 -45 -46 0 -26 -18 33 -31 99 -20 269 5
294 45 13 19 9 26 -15 26 -37 0 -38 10 -6 37 32 27 79 110 79 140 0 20 23 89
33 99 3 3 9 -5 13 -20 8 -35 24 -33 24 3 0 82 52 127 66 56 3 -19 4 -50 1 -67
-50 -289 -51 -292 -109 -374 -48 -67 -141 -111 -283 -134 -74 -12 -85 -11
-150 8 -54 17 -81 32 -120 69 -27 26 -69 59 -93 75 -23 15 -41 31 -40 36 2 5
-11 21 -28 35 -18 15 -41 47 -52 71 -12 24 -28 46 -36 49 -8 3 -18 23 -22 44
-4 21 -22 67 -39 103 -48 96 -56 146 -19 122z m-4041 -102 c-3 -5 -10 -10 -16
-10 -5 0 -9 5 -9 10 0 6 7 10 16 10 8 0 12 -4 9 -10z m5271 -51 c15 -29 15
-35 -2 -78 -20 -55 -56 -109 -62 -93 -2 6 4 21 12 34 12 18 14 36 8 73 -14 93
10 128 44 64z m-66 -14 c0 -15 -18 -30 -27 -22 -2 3 -2 15 2 26 7 23 25 19 25
-4z m-1890 -34 c0 -17 -4 -33 -10 -36 -5 -3 -10 -13 -10 -22 0 -12 3 -13 14
-4 18 15 25 -4 16 -39 -8 -31 -43 -30 -77 2 -31 29 -29 64 6 99 39 38 61 38
61 0z m-3720 -12 c0 -30 -217 -81 -329 -77 -42 2 -75 7 -73 12 1 5 27 9 57 7
69 -3 218 25 264 49 40 21 81 26 81 9z m-1838 -33 c9 -12 17 -31 18 -43 0 -27
9 -33 55 -37 20 -2 38 -6 42 -10 15 -15 33 -4 33 19 0 28 3 30 32 14 18 -10
24 -8 35 7 8 11 26 20 41 21 15 1 49 6 75 12 33 7 55 7 67 1 10 -6 33 -10 49
-10 31 0 69 -16 83 -35 4 -5 8 -22 8 -38 0 -24 -2 -26 -19 -16 -10 7 -27 9
-37 5 -18 -7 -18 -8 1 -22 11 -9 27 -19 35 -24 24 -14 9 -19 -70 -24 -49 -3
-86 0 -109 9 -36 14 -83 20 -133 17 l-27 -2 20 -34 c24 -41 66 -71 93 -67 10
1 22 -3 27 -10 9 -15 102 -42 142 -42 15 0 27 -3 27 -7 0 -4 25 -15 56 -25 30
-9 58 -24 61 -31 9 -23 -17 -72 -40 -78 -37 -10 -96 -7 -117 6 -16 10 -27 8
-65 -10 -61 -29 -94 -28 -167 8 -33 17 -65 30 -72 30 -17 0 -136 88 -143 105
-3 8 -11 15 -17 15 -16 0 -67 56 -59 64 3 3 -9 12 -28 21 -44 19 -69 39 -69
55 0 6 10 26 22 43 13 18 23 50 26 83 3 38 9 54 21 57 31 8 85 -6 103 -27z
m7031 0 c-3 -4 -24 -17 -48 -27 -79 -35 -218 -37 -261 -4 -30 23 -1 34 75 29
36 -3 86 -1 111 4 55 11 130 10 123 -2z m-6333 -125 c0 -32 -3 -61 -7 -65 -5
-4 -15 -28 -23 -53 -22 -69 -38 -66 -38 9 -1 35 2 85 5 112 5 45 7 48 19 31
14 -18 14 -18 14 1 0 12 3 24 6 27 15 15 24 -8 24 -62z m1250 -56 c0 -9 -11
-26 -23 -39 -13 -13 -39 -48 -57 -77 -40 -66 -36 -62 -49 -54 -14 8 3 41 63
123 46 62 66 76 66 47z m180 -182 c0 -68 6 -143 15 -178 17 -70 19 -125 5
-125 -14 0 -27 61 -41 185 -13 121 -13 120 -11 188 2 34 6 47 17 47 12 0 15
-20 15 -117z m-795 24 c62 -25 64 -28 75 -117 10 -79 13 -87 45 -113 36 -30
45 -63 23 -85 -23 -23 -54 -12 -118 42 -63 53 -80 60 -80 30 0 -8 -4 -14 -9
-14 -22 0 4 -42 33 -54 48 -20 102 -72 125 -120 22 -45 28 -101 11 -111 -6 -4
-8 -10 -5 -15 9 -14 -6 -40 -24 -40 -9 0 -64 32 -123 71 -60 39 -114 69 -120
67 -7 -3 5 -16 27 -30 60 -39 112 -98 129 -148 19 -56 20 -74 2 -89 -7 -6 -12
-26 -11 -44 1 -17 2 -72 3 -121 1 -49 4 -87 7 -84 3 3 19 58 35 122 40 156 40
156 100 156 28 0 50 -4 50 -9 0 -5 -29 -99 -65 -208 -35 -109 -69 -216 -75
-238 -14 -56 -22 -65 -62 -71 -35 -6 -35 -6 -41 37 -3 24 -9 85 -13 134 -8
105 -9 104 -65 -72 -27 -86 -36 -103 -53 -104 -12 0 -32 -2 -44 -3 -13 -2 -25
2 -27 8 -2 6 -6 122 -9 259 l-7 247 50 0 c63 0 64 -5 55 -155 -3 -63 -4 -115
-1 -115 3 0 22 51 42 113 20 61 40 120 46 130 7 13 5 19 -8 23 -10 3 -40 14
-68 26 -87 36 -111 35 -147 -5 l-32 -35 -1 -129 c-2 -190 -42 -344 -96 -373
-37 -21 -122 -24 -156 -7 -50 26 -67 75 -59 171 18 216 48 301 116 336 34 18
47 33 78 97 28 60 46 83 84 111 27 19 56 48 64 65 28 53 120 172 155 198 l33
26 -12 75 c-22 147 31 209 143 165z m6188 -254 c10 -9 15 -23 12 -31 -3 -8 0
-20 6 -28 6 -7 9 -25 7 -41 -3 -28 -3 -28 -60 32 -32 33 -58 64 -58 70 0 17
73 15 93 -2z m-5879 -114 c27 -32 28 -48 4 -96 -14 -29 -3 -69 22 -76 11 -3
18 -1 14 4 -8 14 6 10 22 -6 14 -13 13 -15 -5 -15 -12 0 -21 -6 -21 -15 0 -24
-17 -18 -61 22 -51 46 -69 81 -69 134 0 78 49 102 94 48z m5006 -79 c45 -23
69 -54 102 -132 22 -53 25 -56 37 -37 7 12 15 18 18 15 3 -3 0 -12 -7 -21 -10
-11 -10 -15 0 -15 25 0 68 -40 74 -70 7 -38 -17 -90 -42 -90 -27 0 -56 25 -48
39 5 7 14 10 22 7 8 -3 14 -1 14 4 0 6 -5 10 -10 10 -6 0 -17 18 -26 40 -16
40 -34 53 -34 25 0 -16 -36 -39 -49 -30 -5 3 -16 2 -25 -1 -13 -5 -10 -13 16
-45 l31 -39 -12 -72 c-17 -96 -20 -108 -34 -108 -7 0 -24 -11 -38 -24 -21 -19
-28 -38 -33 -83 -14 -123 -15 -126 -64 -165 -55 -44 -127 -61 -147 -35 -8 11
-19 14 -35 10 -21 -6 -22 -4 -16 18 4 13 15 66 23 117 15 86 15 95 0 121 -12
20 -16 50 -15 102 0 46 -6 91 -16 119 -26 73 -21 133 19 215 35 74 80 119 133
135 50 15 121 11 162 -10z m-4811 -100 c6 -28 11 -61 11 -73 0 -20 -1 -20 -14
5 -26 49 -27 50 -42 37 -8 -6 -14 -7 -14 -2 0 6 -11 8 -25 5 -22 -4 -24 -1
-23 31 1 35 3 36 42 40 23 2 44 4 48 5 3 1 11 -21 17 -48z m4981 -24 c0 -3 -4
-8 -10 -11 -5 -3 -10 -1 -10 4 0 6 5 11 10 11 6 0 10 -2 10 -4z m-4215 -72
c25 -10 45 -58 45 -109 l0 -45 -44 0 c-44 0 -45 0 -48 37 -4 44 -30 57 -48 23
-16 -29 -5 -53 47 -112 53 -59 83 -120 82 -163 -1 -21 -3 -24 -6 -10 -3 11
-10 25 -15 32 -5 7 -7 16 -4 21 7 12 -29 54 -38 45 -10 -11 -7 -98 5 -110 6
-6 19 -9 28 -6 12 4 11 2 -3 -9 -10 -8 -16 -19 -13 -24 3 -6 2 -16 -4 -24 -7
-12 -9 -10 -9 8 0 21 -2 22 -15 8 -18 -17 -20 -30 -3 -20 7 5 9 0 6 -14 -5
-18 -3 -19 18 -10 15 7 24 20 24 34 0 24 17 41 28 29 4 -4 1 -10 -6 -12 -6 -3
-10 -9 -7 -14 10 -15 -14 -48 -45 -64 -16 -8 -51 -15 -78 -15 -82 0 -126 53
-120 141 3 44 3 44 44 47 l41 3 6 -42 c7 -51 21 -68 45 -53 43 27 22 96 -54
183 l-56 65 4 64 c4 58 8 68 36 93 27 24 41 29 86 29 30 0 62 -3 71 -6z m-283
-43 c26 -29 28 -38 28 -109 0 -96 -25 -252 -50 -309 -23 -54 -59 -76 -129 -81
-50 -4 -61 -1 -89 23 -44 37 -54 82 -42 196 21 202 46 268 115 301 61 28 131
20 167 -21z m-420 2 c79 -16 106 -133 74 -315 -28 -156 -75 -198 -218 -198
-104 0 -97 -19 -69 186 10 76 22 169 26 206 12 119 14 122 76 129 30 3 61 4
69 2 8 -3 27 -7 42 -10z m-325 -9 c-3 -3 -12 -4 -19 -1 -8 3 -5 6 6 6 11 1 17
-2 13 -5z m-943 -87 c-4 -31 -36 -306 -49 -419 -6 -55 -8 -58 -40 -64 -63 -11
-70 -5 -66 56 2 30 6 77 11 103 l7 48 -36 -3 -36 -3 -14 -102 -15 -101 -44 -7
c-24 -4 -48 -3 -52 2 -5 4 -4 33 1 63 4 30 19 142 33 248 13 107 26 196 28
198 3 2 26 7 53 11 l48 6 -7 -74 c-4 -41 -9 -89 -13 -106 -6 -36 5 -41 50 -24
22 8 25 18 31 78 12 120 13 121 54 125 54 5 61 0 56 -35z m6656 7 c0 -14 -46
-31 -56 -21 -3 3 2 17 11 31 14 21 20 24 31 15 8 -6 14 -18 14 -25z m-7065 -6
c29 -25 45 -79 35 -118 -5 -21 -12 -25 -45 -25 -38 0 -40 1 -43 35 -4 39 -20
54 -39 38 -24 -20 -14 -65 26 -116 22 -27 37 -53 33 -57 -4 -4 -1 -5 7 -3 17
4 38 -35 47 -83 6 -33 6 -33 -10 -12 -9 12 -13 28 -10 37 4 11 1 16 -11 16 -9
0 -14 4 -10 9 3 5 1 12 -5 16 -5 3 -10 1 -10 -5 0 -6 -5 -8 -10 -5 -6 4 -8 15
-5 24 3 11 -2 24 -11 32 -15 12 -16 11 -9 -10 5 -16 4 -21 -4 -17 -6 4 -11 1
-12 -6 0 -10 -2 -10 -6 0 -2 6 -9 10 -14 7 -5 -4 0 -15 10 -27 11 -11 24 -17
30 -14 5 4 13 1 17 -5 3 -6 1 -15 -6 -19 -7 -4 -9 -13 -5 -20 6 -10 10 -10 19
2 10 13 14 12 29 -8 20 -27 16 -32 -7 -8 -15 14 -16 14 -16 0 0 -9 4 -16 8
-16 14 0 8 -86 -7 -104 -14 -17 -12 -19 13 -10 9 3 16 17 16 29 0 13 5 27 11
30 18 12 22 -3 9 -35 -31 -74 -181 -91 -224 -25 -26 39 -40 110 -26 134 9 18
19 22 53 19 36 -3 42 -6 45 -28 6 -55 13 -70 31 -70 34 0 41 56 14 107 -10 18
-34 50 -54 70 -48 51 -59 74 -59 123 0 88 51 139 137 140 29 0 50 -7 68 -22z
m7129 -4 c21 -8 20 -24 -1 -40 -19 -14 -55 -18 -66 -7 -7 7 31 53 44 53 4 0
14 -3 23 -6z m-7714 -21 c0 -5 -11 -93 -24 -198 -13 -104 -27 -218 -31 -252
l-7 -63 -49 0 c-30 0 -49 4 -49 12 0 6 9 83 20 172 11 89 22 173 23 189 4 31
-3 33 -44 11 -17 -8 -32 -14 -34 -12 -1 2 -5 20 -9 40 -7 36 -6 37 56 72 45
25 75 36 106 36 23 0 42 -3 42 -7z m148 -33 c5 -45 -7 -102 -18 -95 -6 3 -7 0
-4 -8 3 -10 -5 -14 -29 -15 -39 -1 -50 18 -41 72 12 68 23 84 57 82 28 -2 32
-6 35 -36z m7657 20 c11 -18 -6 -50 -26 -50 -21 0 -24 12 -9 41 12 21 25 25
35 9z m110 -30 c7 -12 -34 -30 -52 -23 -6 3 -9 11 -6 19 6 16 49 19 58 4z
m-452 -62 c-33 -62 -63 -74 -82 -32 -6 15 -9 29 -6 32 5 5 105 51 113 52 2 0
-9 -24 -25 -52z m112 12 c-5 -8 -11 -8 -17 -2 -6 6 -7 16 -3 22 5 8 11 8 17 2
6 -6 7 -16 3 -22z m55 20 c0 -5 -7 -10 -15 -10 -8 0 -15 5 -15 10 0 6 7 10 15
10 8 0 15 -4 15 -10z m-1475 -147 c-9 -54 -10 -55 -13 -21 -3 30 10 78 21 78
2 0 -2 -26 -8 -57z m1155 -4 c0 -15 8 -35 18 -45 9 -10 22 -31 27 -48 13 -40
30 -35 30 9 0 39 9 45 25 16 15 -28 -4 -69 -35 -77 -14 -3 -27 -5 -29 -3 -36
50 -79 156 -66 164 4 3 6 15 3 28 -4 21 -4 22 11 3 9 -11 16 -32 16 -47z m-34
-141 c26 -41 33 -45 52 -26 19 19 15 -7 -6 -32 l-18 -22 -42 67 c-49 76 -65
113 -32 75 11 -14 32 -42 46 -62z m-63 -5 c41 -40 47 -63 17 -63 -11 0 -27
-12 -36 -26 -19 -28 -34 -18 -34 24 0 13 -7 36 -15 53 -31 59 13 67 68 12z
m-6623 7 c0 -5 -4 -10 -10 -10 -5 0 -10 5 -10 10 0 6 5 10 10 10 6 0 10 -4 10
-10z m6525 -60 c9 -17 13 -40 10 -51 -4 -12 1 -31 11 -47 14 -21 14 -24 2 -14
-9 7 -20 12 -24 11 -25 -4 -34 4 -34 29 0 32 11 102 16 102 2 0 11 -14 19 -30z
m165 -35 c0 -12 -75 -65 -93 -65 -16 0 -5 29 12 35 10 3 26 14 36 25 21 23 45
26 45 5z m-6339 -185 c97 -66 132 -123 132 -215 0 -211 -259 -323 -419 -182
-130 114 -121 272 21 379 59 44 69 47 161 44 55 -2 79 -8 105 -26z m1875 15
c27 -8 57 -21 67 -29 17 -13 17 -16 -10 -64 l-27 -49 -34 14 c-34 14 -137 21
-148 10 -18 -18 10 -35 77 -46 84 -14 139 -41 162 -81 37 -62 8 -159 -59 -201
-55 -33 -170 -38 -244 -10 -30 12 -64 28 -74 36 -19 15 -19 16 4 65 25 53 34
58 64 35 26 -20 120 -38 156 -30 46 10 41 42 -7 50 -86 15 -146 37 -180 69
-29 27 -36 41 -40 82 -4 40 0 55 19 83 50 74 161 101 274 66z m1839 -4 c38
-17 115 -91 115 -110 0 -4 -27 -16 -60 -25 -59 -17 -61 -17 -87 3 -48 39 -134
20 -163 -34 -20 -38 -17 -101 7 -133 38 -51 117 -58 164 -16 30 28 23 34 -41
34 l-60 0 0 50 0 50 136 0 137 0 -7 -56 c-8 -71 -25 -111 -67 -159 -45 -51
-100 -75 -174 -75 -139 0 -248 108 -248 245 0 94 64 191 153 229 49 21 146 20
195 -3z m-4135 -161 c0 -187 -6 -216 -56 -261 -35 -32 -83 -49 -136 -49 -41 0
-101 21 -112 38 -4 6 6 33 21 60 27 48 27 48 55 35 23 -12 32 -12 55 -1 36 17
41 39 42 206 l1 142 65 0 65 0 0 -170z m769 38 c25 -69 49 -129 52 -132 3 -3
27 55 53 129 l48 135 79 0 c43 0 79 -1 79 -3 0 -1 -42 -106 -94 -232 l-94
-230 -69 -3 -69 -3 -87 218 c-47 120 -89 226 -93 236 -6 16 0 18 72 15 l78 -3
45 -127z m655 76 c3 -30 4 -60 1 -65 -4 -5 -44 -9 -91 -9 -83 0 -84 0 -84 -25
0 -24 2 -25 70 -25 l70 0 0 -55 0 -55 -70 0 -70 0 0 -30 0 -30 90 0 90 0 0
-60 0 -60 -160 0 -160 0 0 235 0 235 154 0 153 0 7 -56z m286 -68 l85 -124 3
124 3 124 69 0 70 0 0 -235 0 -235 -72 0 -73 1 -85 126 -85 126 -3 -127 -3
-126 -64 0 -65 0 0 235 0 235 68 0 67 -1 85 -123z m1111 109 c151 -53 197
-261 85 -383 -48 -54 -91 -66 -238 -70 l-138 -4 0 236 0 236 124 0 c86 0 137
-5 167 -15z m570 -210 c50 -121 93 -226 96 -233 4 -10 -11 -12 -68 -10 -73 3
-73 3 -83 36 l-9 32 -93 0 -93 0 -12 -35 -13 -35 -69 0 c-50 0 -68 3 -65 13 2
7 44 112 93 235 l90 222 68 -2 68 -3 90 -220z m1250 202 c52 -27 79 -73 79
-135 0 -57 -21 -105 -59 -133 l-30 -22 45 -61 c75 -103 76 -96 -13 -96 l-78 0
-45 70 c-25 38 -51 70 -57 70 -9 0 -13 -21 -13 -70 l0 -70 -70 0 -70 0 0 235
0 235 133 0 c120 0 138 -2 178 -23z m469 -42 l0 -65 -90 0 c-89 0 -90 0 -90
-25 0 -24 2 -25 75 -25 l75 0 0 -55 0 -55 -76 0 -75 0 3 -27 c3 -28 3 -28 91
-31 l87 -3 0 -59 0 -60 -155 0 -155 0 0 235 0 235 155 0 155 0 0 -65z m360
-82 c-1 -162 -10 -220 -42 -266 -45 -63 -162 -86 -239 -47 l-39 21 16 32 c32
62 46 79 57 68 16 -16 73 -13 91 5 13 13 16 43 16 175 l0 159 70 0 70 0 0
-147z m358 100 c16 -39 149 -361 169 -410 4 -10 -13 -13 -64 -13 l-70 0 -16
40 -15 40 -87 0 -87 0 -15 -40 -16 -40 -70 0 c-51 0 -68 3 -64 13 3 6 41 100
85 207 44 107 85 207 91 223 10 26 14 27 75 27 l64 0 20 -47z m591 23 c131
-70 164 -263 63 -369 -55 -59 -95 -71 -239 -75 l-133 -4 0 237 0 237 138 -4
c108 -3 144 -7 171 -22z m491 -41 l0 -65 -90 0 c-89 0 -90 0 -90 -25 0 -24 2
-25 75 -25 l75 0 0 -55 0 -55 -76 0 -75 0 3 -27 c3 -28 3 -28 91 -31 l87 -3 0
-59 0 -60 -155 0 -155 0 0 235 0 235 155 0 155 0 0 -65z m-5367 -605 c36 -11
75 -28 87 -38 l23 -19 -37 -65 -37 -66 -51 20 c-63 24 -168 29 -192 9 -28 -24
-1 -38 113 -60 167 -33 231 -88 231 -202 0 -188 -240 -276 -470 -173 -88 39
-89 43 -50 123 l33 69 62 -29 c100 -47 245 -50 245 -5 0 21 -24 32 -103 45
-197 34 -284 125 -247 260 34 127 212 187 393 131z m1304 -10 c77 -33 79 -38
42 -112 -17 -35 -32 -64 -34 -66 -1 -1 -19 5 -40 14 -81 33 -200 38 -212 7 -9
-24 9 -33 101 -49 103 -18 128 -26 179 -61 51 -35 67 -70 67 -144 0 -111 -57
-174 -184 -206 -59 -14 -81 -15 -149 -5 -74 11 -159 42 -200 74 -17 13 -16 17
14 86 18 40 35 71 38 69 3 -1 32 -15 63 -31 96 -46 238 -47 238 -1 0 20 -24
30 -105 45 -176 32 -246 91 -246 205 0 97 53 164 150 192 70 20 214 11 278
-17z m721 14 c27 -9 61 -26 76 -38 l27 -21 -32 -77 c-29 -69 -35 -76 -48 -64
-60 52 -154 62 -221 25 -116 -66 -110 -218 11 -279 61 -32 141 -23 198 22 l25
19 27 -60 c46 -102 48 -96 -23 -130 -35 -17 -88 -34 -119 -37 -144 -16 -293
65 -356 195 -38 77 -40 193 -4 261 51 96 120 156 214 185 58 19 165 18 225 -1z
m1473 -4 c35 -11 75 -28 88 -39 l24 -18 -37 -65 -37 -66 -51 20 c-63 24 -168
29 -192 9 -28 -24 -1 -38 113 -60 167 -33 231 -88 231 -202 0 -85 -45 -150
-130 -188 -96 -42 -227 -36 -340 15 -86 39 -87 41 -50 123 l32 69 63 -30 c103
-48 245 -50 245 -3 0 20 -25 31 -103 44 -38 7 -93 21 -122 32 -188 70 -173
312 23 365 72 19 171 17 243 -6z m1230 -12 c76 -34 120 -76 160 -150 30 -57
33 -71 33 -143 0 -97 -22 -152 -88 -223 -136 -145 -373 -144 -509 2 -80 87
-108 220 -68 327 37 97 117 170 224 205 65 21 181 13 248 -18z m-5711 -196 c0
-252 -9 -300 -66 -357 -81 -82 -221 -97 -322 -35 l-33 20 37 70 c20 39 39 70
43 70 3 0 15 -7 25 -15 24 -18 75 -19 98 -1 32 24 38 65 38 267 l0 199 90 0
90 0 0 -218z m510 133 l0 -85 -120 0 -120 0 0 -35 0 -34 98 -3 97 -3 3 -72 3
-73 -101 0 -100 0 0 -40 0 -40 120 0 120 0 0 -80 0 -80 -210 0 -210 0 0 315 0
315 210 0 210 0 0 -85z m870 -115 c0 -219 5 -246 55 -268 41 -19 81 -14 112
12 l28 24 5 214 5 213 98 3 98 3 -3 -228 c-3 -213 -4 -231 -25 -269 -110 -206
-443 -203 -545 4 -22 44 -23 60 -26 270 l-4 222 101 0 101 0 0 -200z m2168
189 c64 -13 125 -65 148 -124 33 -87 1 -203 -71 -262 l-35 -29 70 -96 c39 -53
70 -99 70 -102 0 -3 -46 -6 -102 -6 l-103 0 -63 95 c-34 52 -69 95 -77 95 -12
0 -15 -17 -15 -95 l0 -95 -95 0 -95 0 0 315 0 315 160 0 c87 0 181 -5 208 -11z
m442 -304 l0 -315 -90 0 -90 0 0 315 0 315 90 0 90 0 0 -315z m1190 230 l0
-85 -85 0 -85 0 0 -230 0 -230 -90 0 -90 0 0 230 0 230 -80 0 -80 0 0 85 0 85
255 0 255 0 0 -85z m1510 -698 c0 -7 -7 -22 -15 -34 -13 -18 -29 -22 -115 -29
-102 -7 -148 -24 -66 -24 57 0 60 -15 5 -23 -49 -6 -59 -18 -59 -70 0 -32 3
-37 18 -33 9 2 46 7 82 11 36 4 73 9 84 12 12 3 16 1 12 -6 -4 -6 4 -13 19
-17 14 -3 25 -10 25 -15 0 -21 -113 -59 -204 -68 l-59 -6 -18 -50 -17 -50 -2
35 c-2 32 -3 30 -11 -15 -4 -27 -6 -51 -3 -54 2 -2 55 3 117 12 61 10 136 17
165 17 52 0 52 0 46 -27 -8 -34 -20 -42 -59 -44 l-30 -2 28 -4 c15 -2 27 -8
27 -13 0 -11 -336 -74 -355 -66 -8 3 -14 16 -14 28 2 31 16 87 18 68 1 -13 2
-13 11 0 11 18 14 113 3 107 -11 -7 -4 203 7 224 6 10 10 46 10 81 l0 63 58 3
c31 2 102 7 157 11 100 7 135 1 135 -22z m-392 -4 c0 -10 -4 -37 -10 -59 l-12
-41 -60 -6 c-127 -12 -191 -52 -184 -114 3 -31 -1 -30 118 -19 43 4 58 3 45
-3 -17 -8 -18 -10 -2 -10 11 -1 17 -9 17 -26 0 -20 -5 -25 -27 -26 l-28 -2 28
-4 c48 -7 30 -22 -62 -49 -88 -27 -89 -27 -94 -63 -3 -20 -4 -59 -1 -87 4 -40
1 -61 -15 -93 l-21 -41 22 4 c13 3 24 5 26 5 9 3 17 -3 14 -12 -2 -7 1 -7 10
0 15 12 166 28 243 25 62 -2 153 3 149 9 -2 3 11 6 29 7 18 1 48 4 67 7 19 4
82 8 139 11 78 4 106 2 112 -8 10 -16 -36 -47 -62 -41 -10 3 -16 9 -14 13 3 5
-7 3 -22 -5 -25 -12 -86 -19 -248 -30 -27 -2 -50 -4 -50 -5 0 0 -25 -2 -56 -4
-32 -2 -61 -6 -67 -10 -5 -3 -15 1 -22 9 -7 8 -18 15 -24 15 -6 0 -5 -4 3 -9
18 -11 4 -19 -39 -20 -19 -1 -59 -3 -87 -4 -31 -1 -53 2 -53 8 0 5 -4 4 -9 -4
-6 -9 -10 -10 -16 -2 -4 8 -11 9 -18 3 -18 -14 -67 -21 -67 -9 0 6 -5 6 -12 0
-14 -10 -65 -16 -140 -17 -27 0 -48 -3 -48 -6 0 -3 -17 -5 -38 -5 -20 1 -40
-4 -44 -10 -5 -6 -8 -5 -8 3 0 10 -5 10 -22 1 -17 -9 -23 -9 -26 0 -2 6 -7 9
-12 6 -17 -10 -75 -13 -98 -4 -15 6 -21 5 -17 -1 4 -6 -13 -10 -44 -10 -34 0
-51 4 -51 13 0 9 -2 9 -8 1 -9 -15 -43 -21 -60 -10 -7 4 -19 3 -27 -4 -7 -6
-32 -9 -54 -7 -23 2 -41 1 -41 -2 0 -3 -44 -3 -97 0 -54 4 -101 5 -104 3 -13
-7 -301 -17 -348 -12 -3 0 -8 -1 -11 -2 -3 -1 -22 -4 -42 -5 -26 -2 -36 1 -31
9 4 6 -1 5 -10 -3 -17 -13 -50 -16 -305 -26 -62 -2 -116 -7 -121 -10 -5 -3
-13 -1 -16 5 -4 7 -11 8 -18 1 -15 -11 -88 -11 -103 1 -7 5 -14 4 -17 -4 -3
-9 -27 -13 -78 -12 -41 1 -78 -1 -84 -5 -18 -10 -86 -11 -80 -1 4 6 -3 6 -20
0 -15 -6 -30 -8 -34 -5 -5 2 -22 1 -38 -4 -18 -5 -37 -5 -48 1 -10 6 -15 6
-12 1 3 -5 -23 -8 -61 -8 -46 1 -66 5 -64 13 1 7 -8 12 -20 12 -18 0 -20 2 -9
12 7 8 41 14 79 15 37 1 108 4 157 8 107 8 216 14 266 14 20 0 55 5 78 10 24
5 41 5 41 0 0 -11 37 -12 44 -1 5 9 93 8 124 -2 14 -5 22 -3 22 4 0 6 5 8 10
5 6 -4 19 -3 28 1 22 9 74 5 86 -7 6 -5 15 -9 20 -9 6 0 4 5 -4 10 -13 8 -13
10 3 11 43 4 73 7 91 11 11 3 38 1 60 -3 23 -4 45 -5 50 -2 5 3 32 7 60 9 28
2 56 6 63 8 7 3 15 1 19 -5 3 -5 13 -8 22 -5 10 3 41 6 69 7 l53 3 -33 29
c-19 17 -25 26 -14 23 11 -4 16 -2 12 5 -4 6 -13 8 -21 5 -17 -6 -86 72 -126
141 -52 92 -59 87 -68 -47 -4 -56 -11 -104 -15 -108 -3 -4 -13 2 -21 12 -8 11
-14 14 -14 8 0 -18 -25 -15 -42 6 -13 14 -14 31 -8 102 5 47 9 95 9 108 1 14
5 20 12 17 7 -5 8 5 4 29 -6 28 -4 36 7 36 10 0 18 21 27 66 6 37 9 69 6 72
-3 3 -5 1 -5 -5 0 -6 -11 -8 -25 -5 -31 5 -32 15 -2 31 20 10 20 11 2 8 -18
-3 -45 13 -45 27 0 2 26 19 58 37 49 28 67 33 127 33 78 0 120 -17 154 -60 22
-27 29 -101 13 -120 -5 -5 -19 -27 -32 -49 l-23 -40 36 34 c43 41 47 34 12
-24 -14 -25 -39 -49 -59 -59 -19 -9 -38 -21 -42 -27 -3 -5 16 -33 43 -62 26
-29 63 -70 80 -91 l32 -39 6 37 c4 19 11 34 15 31 4 -3 11 2 14 11 9 22 7 94
-1 94 -11 0 -4 209 7 231 6 10 10 45 10 78 0 34 3 61 8 62 4 0 18 2 32 4 80 9
271 16 289 10 24 -7 28 -37 7 -58 -8 -8 -41 -17 -73 -21 -136 -15 -153 -18
-147 -28 3 -5 22 -7 43 -4 20 4 42 2 49 -2 9 -6 -4 -12 -39 -16 -30 -4 -57
-13 -61 -19 -10 -16 -10 -87 0 -87 4 1 49 7 100 14 77 11 92 11 92 -1 0 -7 9
-13 20 -13 23 0 26 -13 8 -28 -20 -15 -136 -49 -199 -56 l-55 -7 -14 -52 -14
-52 -6 35 c-6 35 -6 35 -13 -14 -4 -27 -6 -51 -4 -52 2 -2 39 3 83 11 43 9
118 18 167 22 l88 6 -7 -29 c-8 -33 -20 -44 -51 -44 -33 0 -39 -20 -6 -21 47
-1 3 -13 -158 -44 -119 -23 -146 -32 -141 -44 4 -10 1 -12 -9 -6 -8 4 0 -6 16
-23 17 -16 32 -28 34 -26 2 2 13 -1 24 -7 11 -7 17 -7 13 -1 -3 5 1 15 8 21 8
7 17 8 20 3 3 -5 29 -7 58 -5 29 2 80 5 113 7 33 2 68 6 78 11 13 5 17 3 15
-6 -2 -8 -7 -17 -13 -21 -6 -5 -6 -8 2 -8 6 0 18 7 26 15 8 8 28 17 43 19 16
3 41 8 57 12 17 3 27 1 27 -6 0 -8 9 -10 24 -6 14 3 27 2 31 -4 4 -6 16 -5 33
1 41 16 145 20 154 6 6 -8 10 -9 16 -1 10 15 144 38 175 30 22 -5 25 -2 32 30
4 26 2 39 -9 47 -12 10 -13 33 -6 150 4 75 13 143 19 151 6 7 14 33 17 58 6
41 4 47 -14 52 -13 5 -19 13 -15 22 3 7 0 14 -6 14 -6 0 -11 14 -11 31 0 21 9
40 30 59 38 35 57 42 80 30 12 -6 30 -6 54 3 20 6 78 13 129 15 83 2 94 0 95
-15z m-419 -32 l24 -19 -17 -83 c-11 -51 -20 -150 -23 -254 -6 -196 -19 -247
-63 -243 -20 2 -26 9 -28 33 -2 17 -8 34 -13 39 -12 13 -12 253 0 261 5 3 11
0 14 -7 5 -13 0 31 -5 48 -1 5 4 50 11 101 8 50 11 101 8 112 -3 15 1 21 17
24 41 8 51 6 75 -12z m-260 -11 c45 -13 102 -57 95 -74 -4 -10 -17 -12 -45 -9
-81 11 -183 -56 -229 -152 -25 -52 -27 -80 -11 -157 10 -47 16 -58 32 -58 38
0 95 32 148 83 36 34 47 42 34 22 -30 -43 -63 -72 -109 -95 -29 -14 -33 -19
-18 -20 29 0 91 42 135 92 38 42 59 44 59 5 0 -14 -21 -44 -55 -77 -30 -30
-55 -58 -55 -62 0 -10 62 27 94 57 14 13 26 20 26 15 0 -19 -100 -88 -145 -99
-25 -6 -43 -16 -40 -21 13 -22 -44 -8 -90 21 l-48 31 17 -27 c23 -35 13 -44
-21 -19 -46 35 -65 86 -71 189 -5 106 4 177 19 154 8 -10 9 -8 4 8 -6 21 16
69 26 58 3 -2 30 21 60 51 36 37 46 52 29 44 -18 -9 -22 -9 -14 -1 10 11 29
18 57 20 5 1 6 5 2 10 -10 18 65 25 114 11z m974 -47 c-7 -2 -19 -2 -25 0 -7
3 -2 5 12 5 14 0 19 -2 13 -5z m-2429 -18 c-4 -8 -10 -15 -15 -15 -4 0 -6 7
-3 15 4 8 10 15 15 15 4 0 6 -7 3 -15z m107 -36 c11 -16 18 -33 15 -38 -4 -5
-8 -72 -11 -148 -8 -262 -15 -330 -36 -352 -10 -11 -19 -25 -19 -31 0 -14 -35
-13 -47 3 -18 22 -21 106 -7 230 7 67 14 133 13 147 0 24 0 25 -15 5 -8 -11
-26 -57 -41 -103 -27 -88 -51 -123 -39 -57 5 25 4 35 -3 30 -6 -3 -11 -12 -11
-19 0 -8 -7 -20 -16 -27 -14 -11 -20 -9 -45 19 -16 18 -29 38 -29 45 0 6 -11
38 -24 70 l-23 58 -7 -33 c-4 -18 -9 -98 -13 -178 -4 -119 -9 -151 -25 -177
-20 -33 -32 -38 -62 -27 -13 5 -16 22 -16 80 0 41 -4 74 -9 74 -5 0 -8 -7 -7
-16 1 -18 -15 -29 -59 -40 l-30 -8 35 -5 c28 -5 3 -13 -130 -40 -91 -18 -177
-31 -190 -29 -22 3 -25 7 -22 41 2 21 11 46 20 55 13 13 17 29 14 60 -2 23 -8
42 -13 42 -5 0 -9 5 -9 11 0 5 4 8 9 5 5 -3 8 36 8 87 -1 102 12 239 23 258 6
8 60 15 164 22 174 11 187 8 170 -40 -10 -30 -1 -27 -181 -49 -24 -3 -43 -10
-43 -15 0 -7 15 -8 38 -5 20 4 43 2 51 -3 9 -6 -5 -11 -42 -15 l-55 -7 -7 -46
c-3 -24 -5 -47 -2 -49 2 -2 35 0 73 6 90 13 137 13 129 0 -3 -5 3 -10 14 -10
12 0 21 -4 21 -10 0 -25 -100 -60 -216 -75 l-51 -6 -13 -52 -14 -52 -7 35 c-6
31 -7 29 -8 -19 -1 -43 2 -52 14 -47 32 12 240 38 281 34 43 -3 44 -2 44 26 0
15 7 76 16 135 9 58 17 118 18 133 0 16 5 28 9 28 4 0 7 6 6 13 -1 6 1 25 6
41 5 20 4 31 -6 37 -19 11 -7 20 38 26 53 7 96 -29 118 -100 9 -29 19 -58 21
-66 3 -9 26 21 54 70 27 46 50 81 50 76 0 -4 -20 -48 -45 -97 -25 -50 -41 -90
-36 -90 4 0 29 44 55 98 61 124 69 133 107 120 16 -5 38 -23 50 -39z m952 -16
c-7 -2 -19 -2 -25 0 -7 3 -2 5 12 5 14 0 19 -2 13 -5z m-656 -95 c-3 -7 -5 -2
-5 12 0 14 2 19 5 13 2 -7 2 -19 0 -25z m-860 16 c-3 -3 -12 -4 -19 -1 -8 3
-5 6 6 6 11 1 17 -2 13 -5z m2782 -68 c-2 -2 -17 -6 -34 -10 -22 -5 -26 -4
-15 4 14 9 59 15 49 6z m-1394 -76 c-3 -5 -16 -10 -28 -9 -20 1 -20 2 3 9 14
4 26 8 28 9 2 1 0 -3 -3 -9z m1225 -20 c0 -5 -4 -10 -10 -10 -5 0 -10 5 -10
10 0 6 5 10 10 10 6 0 10 -4 10 -10z m-2757 -67 c-7 -2 -19 -2 -25 0 -7 3 -2
5 12 5 14 0 19 -2 13 -5z m1377 -3 c0 -5 -4 -10 -10 -10 -5 0 -10 5 -10 10 0
6 5 10 10 10 6 0 10 -4 10 -10z m-1528 -92 c-7 -7 -12 -8 -12 -2 0 14 12 26
19 19 2 -3 -1 -11 -7 -17z"/>
<path d="M3901 6457 c-9 -23 3 -57 20 -57 5 0 12 7 15 15 8 21 40 28 63 13 16
-10 23 -9 38 4 26 22 63 29 63 12 0 -8 7 -14 15 -14 25 0 17 24 -12 37 -16 6
-65 11 -111 11 -76 0 -84 -2 -91 -21z"/>
<path d="M4375 6241 c-7 -22 4 -53 16 -45 12 7 12 64 0 64 -5 0 -12 -8 -16
-19z"/>
<path d="M4270 6151 c-5 -11 -10 -29 -10 -40 0 -11 -4 -23 -10 -26 -5 -3 -10
-17 -10 -30 0 -13 -4 -27 -10 -30 -5 -3 -10 -17 -10 -30 0 -13 -4 -27 -10 -30
-5 -3 -17 -30 -26 -60 -8 -30 -20 -57 -25 -60 -5 -4 -9 -17 -9 -30 0 -13 -4
-27 -10 -30 -5 -3 -10 -13 -10 -22 0 -9 -11 -31 -26 -50 -25 -33 -25 -34 -7
-63 11 -20 23 -28 34 -25 9 3 28 -4 43 -16 32 -25 90 -34 104 -16 19 26 85
272 99 371 4 29 2 37 -7 31 -17 -10 -40 -69 -40 -102 0 -37 -55 -211 -81 -252
-15 -26 -23 -31 -32 -22 -9 9 -1 41 31 134 23 67 42 132 42 143 0 11 9 38 19
60 22 46 30 96 16 101 -6 2 -15 -9 -21 -24 -22 -57 -44 -131 -44 -147 0 -9 -9
-36 -20 -58 -11 -23 -20 -47 -20 -54 0 -7 -12 -35 -26 -62 -41 -79 -75 -79
-53 0 6 24 22 64 35 89 13 26 24 54 24 63 0 9 4 24 9 34 32 61 67 168 77 240
5 36 0 41 -16 13z"/>
<path d="M4391 6163 c0 -5 4 -17 9 -28 8 -18 9 -17 9 8 1 15 -3 27 -9 27 -5 0
-10 -3 -9 -7z"/>
<path d="M4181 6084 c0 -11 3 -14 6 -6 3 7 2 16 -1 19 -3 4 -6 -2 -5 -13z"/>
<path d="M4148 6018 c-10 -10 -18 -25 -18 -33 0 -8 -9 -35 -21 -60 -11 -24
-19 -52 -16 -62 4 -17 5 -16 12 2 4 11 21 48 37 82 33 68 35 101 6 71z"/>
<path d="M4047 5993 c-4 -3 -7 -11 -7 -17 0 -6 5 -5 12 2 6 6 9 14 7 17 -3 3
-9 2 -12 -2z"/>
<path d="M4026 5944 c-4 -9 -4 -19 -1 -22 2 -3 7 3 11 12 4 9 4 19 1 22 -2 3
-7 -3 -11 -12z"/>
<path d="M3979 5845 c-17 -36 -36 -68 -41 -71 -9 -6 -11 -48 -2 -56 3 -3 14
-4 24 -1 15 4 17 12 13 37 -3 21 4 50 21 90 36 81 25 82 -15 1z"/>
<path d="M3623 5883 c-18 -7 -16 -23 2 -23 8 0 15 7 15 15 0 8 -1 15 -2 14 -2
0 -9 -3 -15 -6z"/>
<path d="M4376 5770 c-15 -60 -39 -132 -54 -159 -21 -40 -24 -53 -14 -63 19
-19 39 8 63 87 33 110 56 245 42 245 -6 0 -22 -49 -37 -110z"/>
<path d="M3801 5854 c0 -11 3 -14 6 -6 3 7 2 16 -1 19 -3 4 -6 -2 -5 -13z"/>
<path d="M3695 5850 c-3 -5 1 -10 9 -10 9 0 16 5 16 10 0 6 -4 10 -9 10 -6 0
-13 -4 -16 -10z"/>
<path d="M4066 5823 c-9 -26 -30 -60 -51 -83 -15 -17 -16 -23 -5 -50 17 -41
34 -33 42 21 3 24 13 63 22 87 8 23 11 42 7 42 -5 0 -12 -8 -15 -17z"/>
<path d="M4459 5835 c-4 -5 -10 -30 -13 -55 -10 -62 -28 -143 -37 -155 -3 -5
-9 -22 -13 -37 -3 -16 -11 -28 -16 -28 -14 0 -13 -47 1 -56 18 -11 59 75 59
124 0 13 7 48 16 78 14 50 17 151 3 129z"/>
<path d="M3771 5816 c-8 -10 -9 -16 -1 -21 13 -8 30 3 30 21 0 18 -14 18 -29
0z"/>
<path d="M3857 5797 c-16 -24 -16 -28 -2 -33 22 -9 27 -1 23 32 l-3 28 -18
-27z"/>
<path d="M4560 5749 c0 -22 -4 -48 -9 -57 -15 -29 -21 -104 -8 -99 7 2 11 15
9 27 -1 13 5 33 13 46 17 26 21 124 5 124 -5 0 -10 -18 -10 -41z"/>
<path d="M4498 5700 c-3 -8 -11 -42 -18 -75 -7 -33 -19 -69 -27 -82 -15 -23
-14 -68 1 -68 6 0 16 27 24 60 8 33 18 76 24 96 10 36 7 98 -4 69z"/>
<path d="M4598 5683 c-26 -51 -32 -93 -15 -93 16 0 41 76 35 106 -3 15 -7 13
-20 -13z"/>
<path d="M3905 5669 c-4 -6 -5 -12 -2 -15 2 -3 7 2 10 11 7 17 1 20 -8 4z"/>
<path d="M3990 5621 c-17 -33 -11 -47 10 -21 11 14 20 28 20 33 0 14 -20 7
-30 -12z"/>
<path d="M4047 5498 c-26 -50 -44 -94 -41 -97 9 -9 53 50 61 79 3 14 14 42 24
62 11 20 15 39 10 42 -4 3 -29 -36 -54 -86z"/>
<path d="M4518 5570 c-11 -27 -16 -100 -7 -100 5 0 12 6 15 14 8 20 0 104 -8
86z"/>
<path d="M3942 5514 c-13 -26 -21 -48 -19 -50 5 -6 57 73 57 86 0 23 -17 7
-38 -36z"/>
<path d="M4560 5541 c0 -11 5 -23 10 -26 6 -4 10 5 10 19 0 14 -4 26 -10 26
-5 0 -10 -9 -10 -19z"/>
<path d="M4637 5540 c-22 -26 -22 -27 8 -66 14 -19 25 -46 25 -64 0 -51 20
-34 62 53 4 9 13 26 20 37 16 25 4 37 -18 19 -16 -13 -17 -11 -10 14 7 30 -4
35 -28 12 -8 -8 -17 -15 -20 -15 -3 0 -6 7 -6 15 0 21 -12 19 -33 -5z"/>
<path d="M4174 5529 c-6 -8 -15 -25 -19 -39 l-7 -25 22 21 c12 12 20 30 18 39
-2 15 -5 16 -14 4z"/>
<path d="M4238 5458 c-16 -26 -58 -126 -58 -139 0 -5 4 -9 9 -9 10 0 81 140
81 159 0 18 -17 12 -32 -11z"/>
<path d="M4127 5437 c-9 -14 -17 -33 -17 -41 0 -8 -4 -18 -10 -21 -13 -8 -13
-35 0 -35 14 0 52 85 48 106 -3 15 -6 13 -21 -9z"/>
<path d="M3193 5432 c10 -10 17 -33 17 -50 0 -17 5 -43 11 -59 7 -15 15 -46
18 -68 5 -35 11 -41 41 -51 19 -7 53 -13 75 -15 l40 -4 4 45 c8 97 5 109 -24
140 -16 17 -39 30 -51 30 -12 0 -29 7 -38 15 -8 8 -26 15 -40 15 -14 0 -28 5
-31 10 -3 6 -13 10 -22 10 -15 0 -14 -2 0 -18z"/>
<path d="M4317 5398 c-39 -88 -50 -118 -44 -124 11 -11 26 7 43 54 10 26 23
54 31 63 15 18 18 59 3 59 -5 0 -20 -24 -33 -52z"/>
<path d="M4416 5388 c-9 -12 -16 -30 -16 -40 0 -9 -4 -19 -9 -22 -11 -7 -20
-76 -10 -76 7 0 12 11 48 108 20 54 14 69 -13 30z"/>
<path d="M4507 5357 c-9 -14 -17 -32 -17 -40 0 -7 -4 -17 -9 -22 -5 -6 -11
-31 -14 -58 -4 -40 -2 -46 9 -36 8 6 14 22 14 34 0 12 9 43 21 69 25 58 23 94
-4 53z"/>
<path d="M3987 5364 c-4 -4 -7 -14 -7 -23 0 -11 3 -12 11 -4 6 6 10 16 7 23
-2 6 -7 8 -11 4z"/>
<path d="M4584 5323 c-3 -10 -10 -28 -14 -40 -10 -25 2 -39 17 -20 15 18 24
77 12 77 -5 0 -12 -8 -15 -17z"/>
<path d="M3520 5275 c0 -9 7 -18 15 -21 8 -4 15 -13 15 -20 0 -8 7 -17 15 -20
10 -4 15 -21 15 -53 0 -26 6 -56 14 -67 15 -19 15 -19 58 4 24 12 65 38 91 58
46 34 53 54 19 54 -9 0 -28 9 -42 20 -14 11 -35 20 -48 20 -12 0 -34 7 -47 16
-15 10 -34 14 -49 10 -14 -3 -28 -2 -31 4 -9 15 -25 12 -25 -5z"/>
<path d="M4656 5268 c-18 -25 -21 -54 -7 -62 5 -3 14 6 19 22 5 15 13 35 17
45 10 25 -11 21 -29 -5z"/>
<path d="M4560 5215 c0 -15 4 -24 10 -20 6 3 10 12 10 20 0 8 -4 17 -10 20 -6
4 -10 -5 -10 -20z"/>
<path d="M4724 5228 c-6 -7 -7 -31 -4 -53 l5 -40 8 49 c8 53 5 64 -9 44z"/>
<path d="M4780 5189 c0 -11 5 -17 10 -14 6 3 10 13 10 21 0 8 -4 14 -10 14 -5
0 -10 -9 -10 -21z"/>
<path d="M2568 5113 c-35 -38 -43 -67 -23 -87 9 -9 25 -16 36 -16 16 0 19 7
19 49 0 27 3 56 6 65 9 25 -10 19 -38 -11z"/>
<path d="M3390 5110 c0 -5 5 -10 10 -10 6 0 10 5 10 10 0 6 -4 10 -10 10 -5 0
-10 -4 -10 -10z"/>
<path d="M3420 5087 c0 -37 43 -95 86 -115 24 -12 45 -18 48 -14 6 11 -16 75
-33 95 -7 9 -19 13 -27 10 -11 -4 -15 0 -12 13 2 15 -4 20 -29 22 -24 2 -33
-1 -33 -11z"/>
<path d="M2708 5019 c-49 -66 -62 -109 -32 -109 8 0 22 17 30 38 8 20 20 47
26 59 19 39 3 48 -24 12z"/>
<path d="M4678 4985 c-29 -33 -34 -45 -20 -45 8 0 55 70 50 74 -2 2 -15 -12
-30 -29z"/>
<path d="M4180 4906 c0 -9 5 -16 10 -16 6 0 10 4 10 9 0 6 -4 13 -10 16 -5 3
-10 -1 -10 -9z"/>
<path d="M2604 4560 c-30 -12 -64 -58 -64 -87 0 -36 29 -41 52 -10 11 15 28
27 38 27 29 0 75 44 67 63 -7 19 -56 22 -93 7z"/>
<path d="M2750 4340 c0 -5 4 -10 9 -10 6 0 13 5 16 10 3 6 -1 10 -9 10 -9 0
-16 -4 -16 -10z"/>
<path d="M3580 3950 c-12 -8 -9 -10 13 -10 15 0 27 5 27 10 0 13 -20 13 -40 0z"/>
<path d="M3593 3852 c-50 -32 -54 -52 -13 -71 26 -11 33 -11 47 1 9 7 24 12
34 10 17 -3 49 32 49 54 0 12 -43 35 -63 33 -7 0 -31 -13 -54 -27z"/>
<path d="M3338 3783 c-5 -89 3 -123 31 -123 29 0 44 25 38 67 -16 105 -27 133
-52 133 -9 0 -14 -24 -17 -77z"/>
<path d="M3738 3763 c6 -2 18 -2 25 0 6 3 1 5 -13 5 -14 0 -19 -2 -12 -5z"/>
<path d="M6225 3691 c-3 -5 7 -31 21 -58 15 -26 36 -64 47 -83 25 -46 27 -47
37 -30 6 9 2 23 -10 39 -10 15 -24 45 -32 69 -15 43 -52 80 -63 63z"/>
<path d="M6350 3466 c0 -8 5 -18 10 -21 6 -3 10 1 10 9 0 8 -4 18 -10 21 -5 3
-10 -1 -10 -9z"/>
<path d="M6068 2783 c7 -3 16 -2 19 1 4 3 -2 6 -13 5 -11 0 -14 -3 -6 -6z"/>
<path d="M7706 5291 c-28 -6 -49 -31 -26 -31 6 0 26 -11 43 -23 18 -13 59 -30
92 -37 79 -16 111 -33 168 -88 47 -46 59 -44 33 6 -25 47 -99 110 -166 140
-76 35 -104 41 -144 33z"/>
<path d="M7680 5120 c-14 -11 -32 -20 -41 -20 -30 0 -59 -44 -59 -88 0 -22 5
-44 10 -47 14 -8 40 13 40 31 0 19 55 70 104 95 40 21 39 33 -4 43 -17 4 -33
-1 -50 -14z"/>
<path d="M7275 5040 c-4 -6 -5 -12 -4 -13 2 -1 26 -17 52 -36 27 -18 50 -31
53 -28 2 2 0 17 -6 32 -9 25 -9 27 5 15 20 -17 29 -8 12 12 -15 20 -102 34
-112 18z"/>
<path d="M7922 5019 c-13 -16 -32 -29 -43 -29 -16 0 -19 -5 -14 -20 5 -17 2
-20 -20 -20 -37 0 -165 -30 -165 -39 0 -14 25 -31 46 -31 14 0 21 -6 20 -17
-3 -36 111 -43 185 -12 27 12 49 26 49 31 0 6 18 8 46 3 l45 -6 -17 33 c-9 18
-18 46 -19 61 -3 31 -47 77 -73 76 -9 0 -27 -13 -40 -30z"/>
<path d="M7175 3990 c4 -6 11 -8 16 -5 14 9 11 15 -7 15 -8 0 -12 -5 -9 -10z"/>
<path d="M910 3991 c-5 -11 -10 -22 -10 -25 0 -11 71 -18 84 -7 7 6 15 9 18 6
3 -3 11 1 17 9 10 12 8 16 -9 21 -12 4 -28 1 -37 -6 -13 -11 -17 -10 -28 4
-16 22 -22 21 -35 -2z"/>
<path d="M1050 3990 c-12 -8 -11 -10 8 -10 12 0 22 5 22 10 0 13 -11 13 -30 0z"/>
<path d="M1827 2980 c3 -11 9 -20 15 -20 5 0 4 9 -2 20 -6 11 -12 20 -14 20
-2 0 -2 -9 1 -20z"/>
<path d="M1980 2970 c0 -6 7 -10 15 -10 8 0 15 2 15 4 0 2 -7 6 -15 10 -8 3
-15 1 -15 -4z"/>
<path d="M1469 2921 c8 -5 11 -16 8 -24 -4 -11 -1 -14 9 -10 7 3 14 8 14 12 0
11 -23 31 -34 31 -6 0 -5 -4 3 -9z"/>
<path d="M1554 2922 c-20 -13 -32 -46 -43 -122 -13 -91 -17 -183 -7 -199 14
-22 56 -13 66 15 13 34 35 278 27 298 -7 17 -25 20 -43 8z"/>
<path d="M1470 2839 c0 -5 5 -7 10 -4 6 3 10 8 10 11 0 2 -4 4 -10 4 -5 0 -10
-5 -10 -11z"/>
<path d="M1820 2819 c0 -5 5 -7 10 -4 6 3 10 8 10 11 0 2 -4 4 -10 4 -5 0 -10
-5 -10 -11z"/>
<path d="M1796 2783 c-6 -14 -5 -15 5 -6 7 7 10 15 7 18 -3 3 -9 -2 -12 -12z"/>
<path d="M1830 2749 c0 -5 5 -7 10 -4 6 3 10 8 10 11 0 2 -4 4 -10 4 -5 0 -10
-5 -10 -11z"/>
<path d="M1800 2740 c-13 -8 -12 -10 3 -10 9 0 17 5 17 10 0 12 -1 12 -20 0z"/>
<path d="M1833 2718 c-2 -5 3 -8 12 -8 11 0 15 -5 11 -15 -4 -13 -2 -14 14 -5
29 16 25 38 -6 36 -14 0 -28 -4 -31 -8z"/>
<path d="M1808 2689 c-22 -12 -24 -39 -2 -39 8 0 13 4 10 9 -4 5 -1 11 5 13 7
2 10 9 8 15 -3 8 -9 9 -21 2z"/>
<path d="M1895 2690 c-3 -5 -1 -10 4 -10 6 0 11 5 11 10 0 6 -2 10 -4 10 -3 0
-8 -4 -11 -10z"/>
<path d="M2076 2662 c-4 -7 -4 -12 1 -12 4 0 2 -4 -6 -9 -7 -5 -11 -15 -9 -22
3 -10 8 -7 17 9 13 25 11 56 -3 34z"/>
<path d="M1840 2650 c0 -5 5 -10 11 -10 5 0 7 5 4 10 -3 6 -8 10 -11 10 -2 0
-4 -4 -4 -10z"/>
<path d="M1815 2630 c-3 -5 -1 -10 4 -10 6 0 11 5 11 10 0 6 -2 10 -4 10 -3 0
-8 -4 -11 -10z"/>
<path d="M1605 2600 c-8 -13 -1 -24 14 -19 6 3 7 10 2 18 -6 10 -10 10 -16 1z"/>
<path d="M2000 2598 c0 -4 7 -8 15 -8 8 0 15 4 15 8 0 5 -7 9 -15 9 -8 0 -15
-4 -15 -9z"/>
<path d="M2015 2569 c-17 -8 -16 -9 7 -4 16 3 28 0 31 -8 3 -7 6 -5 6 6 1 19
-13 21 -44 6z"/>
<path d="M1457 2540 c6 -23 33 -49 33 -31 0 6 -4 11 -10 11 -5 0 -10 6 -10 14
0 8 -4 17 -9 20 -5 4 -7 -3 -4 -14z"/>
<path d="M1840 2549 c0 -5 5 -7 10 -4 6 3 10 8 10 11 0 2 -4 4 -10 4 -5 0 -10
-5 -10 -11z"/>
<path d="M1537 2525 c-7 -16 8 -29 23 -20 6 3 10 14 10 23 0 13 -2 13 -15 -4
-13 -16 -14 -16 -9 -1 7 21 -1 23 -9 2z"/>
<path d="M7355 3060 c3 -5 8 -10 11 -10 2 0 4 5 4 10 0 6 -5 10 -11 10 -5 0
-7 -4 -4 -10z"/>
<path d="M3252 3078 c7 -15 15 -23 17 -17 2 6 -4 18 -13 27 -15 15 -15 15 -4
-10z"/>
<path d="M3290 3065 c13 -16 30 -11 30 8 0 7 -4 6 -10 -3 -6 -10 -10 -11 -10
-2 0 6 -5 12 -11 12 -8 0 -8 -5 1 -15z"/>
<path d="M3156 3011 c-4 -7 -5 -15 -2 -18 9 -9 19 4 14 18 -4 11 -6 11 -12 0z"/>
<path d="M3180 2990 c0 -5 5 -10 11 -10 5 0 7 5 4 10 -3 6 -8 10 -11 10 -2 0
-4 -4 -4 -10z"/>
<path d="M3182 2903 c-9 -3 -2 -13 17 -27 17 -13 28 -26 24 -30 -7 -7 26 -35
43 -36 19 0 23 48 6 62 -13 11 -14 10 -8 -8 4 -15 2 -21 -8 -21 -9 0 -14 9
-13 21 1 12 -3 20 -10 19 -7 -2 -13 1 -13 6 0 12 -21 19 -38 14z"/>
<path d="M3271 2774 c0 -11 3 -14 6 -6 3 7 2 16 -1 19 -3 4 -6 -2 -5 -13z"/>
<path d="M3135 2720 c3 -5 8 -10 11 -10 2 0 4 5 4 10 0 6 -5 10 -11 10 -5 0
-7 -4 -4 -10z"/>
<path d="M3247 2658 c-2 -8 2 -23 10 -33 13 -19 14 -18 7 10 -8 37 -10 39 -17
23z"/>
<path d="M3180 2640 c0 -5 5 -10 11 -10 5 0 7 5 4 10 -3 6 -8 10 -11 10 -2 0
-4 -4 -4 -10z"/>
<path d="M3220 2630 c0 -5 5 -10 11 -10 5 0 7 5 4 10 -3 6 -8 10 -11 10 -2 0
-4 -4 -4 -10z"/>
<path d="M3150 2620 c0 -5 5 -10 10 -10 6 0 10 5 10 10 0 6 -4 10 -10 10 -5 0
-10 -4 -10 -10z"/>
<path d="M2966 3065 c-22 -22 -20 -28 4 -15 23 13 28 -7 8 -29 -11 -11 -9 -11
9 -2 31 16 33 23 13 44 -16 17 -19 17 -34 2z"/>
<path d="M2912 3061 c-11 -7 -11 -9 0 -14 9 -3 15 1 15 9 0 8 -1 14 -1 14 -1
0 -7 -4 -14 -9z"/>
<path d="M3012 3014 c-7 -8 -8 -14 -3 -14 10 0 25 19 20 25 -2 1 -10 -3 -17
-11z"/>
<path d="M2870 3016 c0 -2 7 -7 16 -10 8 -3 12 -2 9 4 -6 10 -25 14 -25 6z"/>
<path d="M2843 2989 c3 -9 0 -22 -6 -28 -9 -9 -8 -11 6 -6 20 8 21 14 6 35 -9
13 -10 13 -6 -1z"/>
<path d="M2895 2968 c-16 -41 -38 -209 -33 -263 3 -35 6 -40 30 -43 37 -4 44
12 62 167 19 149 16 171 -20 171 -19 0 -28 -8 -39 -32z"/>
<path d="M2966 2672 c-3 -6 -1 -14 5 -17 14 -9 20 -2 10 14 -6 8 -11 9 -15 3z"/>
<path d="M2805 2636 c14 -18 22 -36 17 -41 -4 -5 -2 -5 5 -1 14 8 -13 62 -35
71 -7 2 -1 -10 13 -29z"/>
<path d="M2897 2601 c-4 -17 -3 -21 5 -13 5 5 8 16 6 23 -3 8 -7 3 -11 -10z"/>
<path d="M2540 2967 c0 -14 -31 -260 -36 -284 -6 -30 -4 -33 18 -33 49 0 73
56 84 196 8 93 -3 124 -41 124 -14 0 -25 -1 -25 -3z"/>
<path d="M2468 2713 c7 -3 16 -2 19 1 4 3 -2 6 -13 5 -11 0 -14 -3 -6 -6z"/>
<path d="M2424 2665 c3 -8 2 -15 -3 -15 -4 0 -8 -7 -8 -15 0 -10 6 -14 14 -10
8 3 17 5 19 5 3 0 2 5 -1 10 -4 6 -3 10 2 9 25 -4 43 3 43 18 0 13 -3 14 -11
6 -8 -8 -20 -9 -36 -2 -21 8 -24 7 -19 -6z"/>
<path d="M2620 2650 c-9 -6 -10 -10 -3 -10 6 0 15 5 18 10 8 12 4 12 -15 0z"/>
<path d="M2552 2634 c-12 -8 -22 -11 -22 -7 0 5 -11 10 -25 11 -14 1 -25 -3
-25 -9 0 -5 4 -8 9 -4 5 3 12 1 16 -5 3 -5 16 -9 28 -8 12 1 33 -2 47 -6 l25
-7 -25 15 c-22 13 -21 21 3 17 4 0 7 4 7 9 0 14 -12 12 -38 -6z"/>
<path d="M2446 2615 c-3 -8 0 -15 7 -15 7 0 4 -5 -6 -11 -25 -15 -11 -29 26
-28 18 1 24 3 15 6 -10 2 -15 10 -11 19 3 7 10 11 17 7 6 -3 1 4 -11 16 -26
25 -29 26 -37 6z"/>
<path d="M2515 2590 c-7 -12 -8 -11 28 -14 25 -2 27 0 11 11 -21 16 -31 16
-39 3z"/>
<path d="M1308 2983 c7 -3 16 -2 19 1 4 3 -2 6 -13 5 -11 0 -14 -3 -6 -6z"/>
<path d="M1264 2959 c-8 -13 13 -36 23 -24 5 4 2 10 -5 12 -6 3 -10 9 -6 14 3
5 3 9 0 9 -3 0 -8 -5 -12 -11z"/>
<path d="M1314 2962 c-11 -8 -12 -27 -2 -37 3 -4 9 3 13 15 8 24 4 32 -11 22z"/>
<path d="M1277 2904 c3 -9 1 -19 -6 -23 -8 -5 -5 -13 8 -28 13 -13 16 -24 10
-30 -7 -7 -4 -12 9 -15 15 -4 18 -1 14 14 -3 11 1 24 8 28 9 5 9 9 1 14 -6 4
-11 2 -11 -4 0 -6 -4 -9 -9 -6 -5 3 -8 19 -7 36 1 19 -3 30 -11 30 -7 0 -10
-6 -6 -16z"/>
<path d="M1305 2900 c-3 -5 -1 -10 4 -10 6 0 11 5 11 10 0 6 -2 10 -4 10 -3 0
-8 -4 -11 -10z"/>
<path d="M1255 2850 c3 -5 8 -10 11 -10 2 0 4 5 4 10 0 6 -5 10 -11 10 -5 0
-7 -4 -4 -10z"/>
<path d="M1245 2789 c-7 -29 -4 -36 21 -56 28 -22 28 -22 4 -16 -20 4 -22 3
-14 -7 15 -15 54 -4 54 16 0 8 -4 13 -9 9 -14 -8 -42 25 -37 44 3 9 2 22 -3
30 -6 10 -11 5 -16 -20z"/>
<path d="M1210 2755 c0 -8 2 -15 4 -15 2 0 6 7 10 15 3 8 1 15 -4 15 -6 0 -10
-7 -10 -15z"/>
<path d="M1168 2733 c7 -3 16 -2 19 1 4 3 -2 6 -13 5 -11 0 -14 -3 -6 -6z"/>
<path d="M1206 2721 c-4 -5 3 -7 14 -4 23 6 26 13 6 13 -8 0 -17 -4 -20 -9z"/>
<path d="M1127 2693 c-4 -3 -7 -11 -7 -17 0 -6 5 -5 12 2 6 6 9 14 7 17 -3 3
-9 2 -12 -2z"/>
<path d="M1270 2680 c0 -5 7 -10 15 -10 8 0 15 5 15 10 0 6 -7 10 -15 10 -8 0
-15 -4 -15 -10z"/>
<path d="M1086 2665 c4 -8 8 -15 10 -15 2 0 4 7 4 15 0 8 -4 15 -10 15 -5 0
-7 -7 -4 -15z"/>
<path d="M1090 2630 c0 -5 5 -10 10 -10 6 0 10 5 10 10 0 6 -4 10 -10 10 -5 0
-10 -4 -10 -10z"/>
<path d="M810 2777 c-14 -11 -14 -14 0 -27 16 -16 50 -15 50 1 0 9 -15 13 -34
10 -5 -1 -6 5 -3 14 7 18 7 18 -13 2z"/>
<path d="M858 2535 c-7 -7 14 -55 25 -55 4 0 4 8 -1 18 -5 9 -11 23 -13 30 -3
7 -7 10 -11 7z"/>
<path d="M895 2530 c3 -5 8 -10 11 -10 2 0 4 5 4 10 0 6 -5 10 -11 10 -5 0 -7
-4 -4 -10z"/>
<path d="M765 2490 c3 -5 8 -10 11 -10 2 0 4 5 4 10 0 6 -5 10 -11 10 -5 0 -7
-4 -4 -10z"/>
<path d="M286 2918 c3 -5 10 -6 15 -3 13 9 11 12 -6 12 -8 0 -12 -4 -9 -9z"/>
<path d="M326 2907 c3 -10 9 -15 12 -12 3 3 0 11 -7 18 -10 9 -11 8 -5 -6z"/>
<path d="M241 2888 c-1 -21 3 -25 19 -21 26 7 36 22 13 19 -10 -2 -21 4 -25
13 -5 11 -7 8 -7 -11z"/>
<path d="M180 2866 c0 -2 7 -7 16 -10 8 -3 12 -2 9 4 -6 10 -25 14 -25 6z"/>
<path d="M266 2844 c-4 -10 -1 -14 6 -11 7 2 18 -3 24 -11 9 -13 12 -13 17 2
4 10 3 15 -3 11 -6 -3 -10 1 -10 9 0 21 -26 21 -34 0z"/>
<path d="M270 2810 c0 -5 5 -10 10 -10 6 0 10 5 10 10 0 6 -4 10 -10 10 -5 0
-10 -4 -10 -10z"/>
<path d="M455 2908 c-10 -48 -10 -91 1 -95 14 -5 24 29 24 80 0 40 -17 51 -25
15z"/>
<path d="M7535 2540 c-8 -14 3 -30 21 -30 8 0 14 9 14 20 0 21 -24 28 -35 10z"/>
<path d="M1140 2197 c-50 -17 -83 -70 -77 -125 15 -139 215 -143 234 -5 12 91
-70 159 -157 130z"/>
<path d="M3550 2079 l0 -110 48 7 c61 9 79 18 97 54 25 49 19 88 -19 126 -29
29 -41 34 -80 34 l-46 0 0 -111z"/>
<path d="M4104 2135 c-4 -11 -13 -35 -20 -54 -20 -49 -19 -51 31 -51 25 0 45
1 45 3 0 2 -11 30 -24 63 -20 48 -26 55 -32 39z"/>
<path d="M5358 2204 c-5 -4 -8 -27 -8 -51 l0 -43 43 0 c24 0 48 5 55 12 16 16
15 53 -2 67 -18 15 -79 25 -88 15z"/>
<path d="M6602 2101 c-12 -30 -22 -58 -22 -62 0 -5 21 -9 46 -9 51 0 51 0 15
84 l-17 40 -22 -53z"/>
<path d="M7124 2177 c-3 -8 -3 -56 -2 -108 l3 -94 41 -3 c32 -2 48 2 71 22 61
52 66 114 13 167 -23 24 -37 29 -75 29 -29 0 -48 -5 -51 -13z"/>
<path d="M6958 1498 c-53 -14 -105 -74 -113 -131 -20 -131 120 -230 235 -166
68 39 99 108 79 182 -23 89 -111 139 -201 115z"/>
<path d="M4810 1440 l0 -72 60 4 c70 5 93 22 93 68 0 45 -22 61 -92 67 l-61 6
0 -73z"/>
<path d="M7635 870 c-18 -8 -18 -9 5 -8 14 0 39 4 55 8 l30 8 -35 0 c-19 0
-44 -3 -55 -8z"/>
<path d="M7585 794 l-40 -14 65 6 c35 3 71 10 80 14 25 15 -60 10 -105 -6z"/>
<path d="M6129 718 c-15 -12 -46 -155 -35 -165 14 -15 156 97 156 123 0 33
-93 65 -121 42z"/>
<path d="M6266 681 c-4 -7 -5 -15 -2 -18 9 -9 19 4 14 18 -4 11 -6 11 -12 0z"/>
<path d="M6232 619 c-19 -30 -8 -34 12 -4 9 14 13 25 9 25 -5 0 -14 -9 -21
-21z"/>
<path d="M7383 445 c0 -22 2 -30 4 -17 2 12 2 30 0 40 -3 9 -5 -1 -4 -23z"/>
<path d="M7232 705 c0 -16 2 -22 5 -12 2 9 2 23 0 30 -3 6 -5 -1 -5 -18z"/>
<path d="M7222 635 c0 -16 2 -22 5 -12 2 9 2 23 0 30 -3 6 -5 -1 -5 -18z"/>
<path d="M7231 284 c0 -11 3 -14 6 -6 3 7 2 16 -1 19 -3 4 -6 -2 -5 -13z"/>
<path d="M6780 390 c0 -8 5 -22 10 -30 9 -13 10 -13 10 0 0 8 -5 22 -10 30 -9
13 -10 13 -10 0z"/>
<path d="M5575 576 c-20 -42 -38 -93 -41 -113 -5 -45 -3 -40 52 90 20 48 34
90 31 93 -3 3 -22 -28 -42 -70z"/>
<path d="M5638 575 c-4 -22 -7 -67 -7 -100 l1 -60 10 49 c5 27 8 72 6 100 l-3
51 -7 -40z"/>
<path d="M5616 212 c-4 -13 -5 -26 -2 -29 10 -11 18 4 14 29 l-4 23 -8 -23z"/>
</g>
</svg>
